<svg xmlns="http://www.w3.org/2000/svg" viewBox="0 0 693.18 396.31"><defs><style>.cls-1{fill:#bf9759;}.cls-10,.cls-2,.cls-5,.cls-6,.cls-7,.cls-8{fill:#fff;}.cls-2{opacity:0.8;}.cls-3{fill:none;}.cls-10,.cls-3,.cls-9{stroke:#263238;stroke-miterlimit:10;}.cls-4,.cls-9{fill:#263238;}.cls-5{opacity:0.31;}.cls-6{opacity:0.5;}.cls-7{opacity:0.33;}</style></defs><g id="Layer_2" data-name="Layer 2"><g id="Rocks"><path class="cls-1" d="M676.68,151.77c-7.88-28.38-60.42,2.49-60.42,2.49L630,129.32a54.65,54.65,0,0,0,4.35-7.9c6.91-15.44,6.82-31.95,0-46.34-1.88-8.73-7.59-21.21-23.32-34.89C581.24,14.32,481.43-3.38,452.54.55S478.8,16.63,478.8,16.63l-4.37,0C390.28,7.67,305.61,6.52,221.6,8.26c-21.07.44-42.2,1.13-62.82,4.69-5.94,1-12.32,2.59-15.85,7.38-15.69,21.26,48.47,23.34,58.53,22.93-44.07,5.73-93,7.48-134,24.51C61.74,70.15,56.07,73,51.77,77.36S44.65,88,45.62,94.26c2.82,18.2,27.89,23.59,42.11,27.63,0,0-81.72,54.34-72.09,81.92A96.61,96.61,0,0,0,36.55,239a135.41,135.41,0,0,0-16,24.85c-2.61,5.34-6,12.66-3.11,18.8C32.27,314,258,421.55,438.88,390.86c48.06-8.15,95.91-21.64,138-45.48,41.92-23.73,84.64-62.92,95.2-112.35.35-1.63.6-3.21.78-4.74C679.44,205.51,683.27,175.51,676.68,151.77Z"/><path class="cls-2" d="M676.68,151.77c-7.88-28.38-60.42,2.49-60.42,2.49L630,129.32a54.65,54.65,0,0,0,4.35-7.9c6.91-15.44,6.82-31.95,0-46.34-1.88-8.73-7.59-21.21-23.32-34.89C581.24,14.32,481.43-3.38,452.54.55S478.8,16.63,478.8,16.63l-4.37,0C390.28,7.67,305.61,6.52,221.6,8.26c-21.07.44-42.2,1.13-62.82,4.69-5.94,1-12.32,2.59-15.85,7.38-15.69,21.26,48.47,23.34,58.53,22.93-44.07,5.73-93,7.48-134,24.51C61.74,70.15,56.07,73,51.77,77.36s-6,10.56-6.15,16.9c-.4,16.78,26.57,23,42.11,27.63,0,0-81.72,54.34-72.09,81.92A96.61,96.61,0,0,0,36.55,239a135.41,135.41,0,0,0-16,24.85c-2.61,5.34-6,12.66-3.11,18.8C32.27,314,258,421.55,438.88,390.86c48.06-8.15,95.91-21.64,138-45.48,41.92-23.73,84.64-62.92,95.2-112.35.35-1.63.6-3.21.78-4.74C679.44,205.51,683.27,175.51,676.68,151.77Z"/><path class="cls-3" d="M530.45,120.76s1-3.06,6.12-4.08,11.23,4.59,11.23,4.59,4.08-8.16,8.16-8.67,8.67,3.06,8.67,3.06"/><path class="cls-3" d="M517.18,140.15s1-3.06,6.13-4.08,11.22,4.59,11.22,4.59,4.08-8.17,8.17-8.68,8.67,3.07,8.67,3.07"/><path class="cls-3" d="M565.65,140.27s.78-2.33,4.67-3.11,8.54,3.5,8.54,3.5,3.11-6.22,6.21-6.6,6.61,2.33,6.61,2.33"/><path class="cls-3" d="M622.35,160.81s.51-1.53,3.06-2,5.6,2.3,5.6,2.3,2-4.08,4.07-4.33,4.33,1.52,4.33,1.52"/><path class="cls-3" d="M350.63,115.35c-5.27-23.68-32.58-41.34-56.37-38a29.81,29.81,0,0,0-16.16,7.17c-6.08,5.59-4.64,11.93-7.65,18.86a6.45,6.45,0,0,1-4.53,4c-5.92,1-10.69-4.89-16.68-4.93-4.48,0-10.21,2.44-12.71,6.31-2.33,3.6-.7,9.89-4.89,12.28-4.69,2.68-10.38-2.41-15.45-.57-6.29,2.29-3.43,6.87-5.72,9.73s-6.86,1.71-13.16,1.14-11.44,6.87-11.44,6.87H384.38s1.72-2.86-5.72-14.31-17.73-3.43-22.31-3.43S350.63,115.36,350.63,115.35Z"/><path class="cls-3" d="M405.91,77.31c-2.11-9.5-13.06-16.59-22.61-15.23A12,12,0,0,0,376.82,65c-2.44,2.25-1.86,4.79-3.07,7.57a2.61,2.61,0,0,1-1.82,1.6c-2.37.41-4.29-2-6.69-2a6.47,6.47,0,0,0-5.1,2.54c-.93,1.44-.28,4-2,4.92-1.88,1.08-4.17-1-6.2-.22-2.53.91-1.38,2.75-2.3,3.9s-2.75.69-5.27.46-4.59,2.75-4.59,2.75h79.64s.68-1.15-2.3-5.74-7.11-1.37-9-1.37S405.92,77.31,405.91,77.31Z"/><path class="cls-3" d="M575.82,193.77c-2.12-9.51-13.07-16.59-22.62-15.23a12,12,0,0,0-6.48,2.87c-2.44,2.24-1.86,4.79-3.07,7.57a2.59,2.59,0,0,1-1.82,1.6c-2.37.41-4.29-2-6.69-2a6.49,6.49,0,0,0-5.1,2.53c-.93,1.45-.28,4-2,4.93-1.88,1.07-4.17-1-6.2-.23-2.52.92-1.38,2.76-2.29,3.9s-2.76.69-5.28.46-4.59,2.76-4.59,2.76h79.64s.69-1.15-2.3-5.74-7.11-1.38-8.95-1.38S575.82,193.77,575.82,193.77Z"/><path class="cls-3" d="M448.07,183.37c-3.24-14.56-20-25.41-34.64-23.33a18.31,18.31,0,0,0-9.93,4.4c-3.73,3.44-2.85,7.34-4.7,11.6a4,4,0,0,1-2.78,2.45c-3.64.62-6.57-3-10.25-3-2.76,0-6.28,1.5-7.81,3.88-1.43,2.21-.44,6.07-3,7.54-2.88,1.65-6.38-1.48-9.49-.35-3.87,1.41-2.11,4.22-3.52,6s-4.21,1.05-8.08.7-7,4.22-7,4.22h122s1.05-1.76-3.52-8.79-10.89-2.11-13.7-2.11S448.07,183.37,448.07,183.37Z"/><path class="cls-4" d="M476.76,351.06s-7.29-7.55-5.24-7.32,5.87,5.87,5.87,5.87.06-12.45,1.87-9.72-.41,9.78-.41,9.78,5.2-8.12,5.19-6.79c0,4.1-4,7.3-4,7.3s8.33-6.16,7-3.66-6.69,4.86-6.69,4.86,9.6-1.93,6.19-.57-6.65,2.3-6.65,2.3h-2.66s-9.06-4.55-5.65-3.86A17,17,0,0,1,476.76,351.06Z"/><path class="cls-4" d="M573.05,327.43s-5.68-5.88-4.08-5.71,4.57,4.58,4.57,4.58,0-9.7,1.46-7.57-.33,7.61-.33,7.61,4.05-6.32,4-5.29c0,3.2-3.12,5.69-3.12,5.69s6.48-4.8,5.42-2.85-5.2,3.78-5.2,3.78,7.47-1.5,4.81-.44-5.18,1.79-5.18,1.79h-2.06s-7.06-3.54-4.4-3A13.13,13.13,0,0,1,573.05,327.43Z"/><path class="cls-4" d="M662.44,306.34s-5.67-5.88-4.08-5.71,4.58,4.58,4.58,4.58,0-9.69,1.45-7.57-.32,7.61-.32,7.61,4-6.32,4-5.28c0,3.19-3.12,5.68-3.12,5.68s6.48-4.8,5.42-2.85-5.21,3.78-5.21,3.78,7.47-1.5,4.82-.44-5.18,1.79-5.18,1.79h-2.07s-7-3.54-4.4-3A13,13,0,0,1,662.44,306.34Z"/><path class="cls-1" d="M548.51,354.51s-6.78-7-4.87-6.81,5.46,5.46,5.46,5.46,0-11.58,1.74-9-.39,9.09-.39,9.09,4.84-7.55,4.83-6.31c0,3.81-3.73,6.79-3.73,6.79s7.74-5.74,6.48-3.41-6.22,4.52-6.22,4.52,8.92-1.8,5.75-.53-6.19,2.14-6.19,2.14h-2.46s-8.43-4.23-5.26-3.59A15.61,15.61,0,0,1,548.51,354.51Z"/><polyline class="cls-3" points="414.38 324.04 354.42 256.81 341.28 267.32 275.54 168.34 218.31 181.09 201.2 149.12 184.56 148.24 153.04 86.08 105.89 129.09 83.16 120.98 0.36 205.41"/><line class="cls-3" x1="425.63" y1="336.65" x2="419.34" y2="329.6"/><line class="cls-3" x1="187.58" y1="189.31" x2="182.62" y2="190.65"/><line class="cls-3" x1="218.19" y1="181.02" x2="193.16" y2="187.8"/><polyline class="cls-3" points="123.75 152.24 137.77 131.55 136.82 124.45 152.91 91.8"/><line class="cls-3" x1="117.9" y1="160.89" x2="121.41" y2="155.7"/><line class="cls-3" x1="96.14" y1="173.13" x2="73.41" y2="203.95"/><polyline class="cls-3" points="84.3 124.45 89.98 137.22 102.75 147.64 101.33 166.09 98.24 170.29"/><polyline class="cls-3" points="201.2 149.12 189.35 160.41 185.09 153.31"/><polyline class="cls-3" points="679.5 275.6 587.48 210.7 559.55 250.13 525.04 238.63 471.64 313.39 437.13 306 419.88 320.79"/><polyline class="cls-3" points="587.48 210.7 576.54 258.79 563.64 253.14"/><polyline class="cls-3" points="525.34 241.45 498.32 320.07 479.78 316.85"/><path class="cls-1" d="M524.09,235.83a43.21,43.21,0,0,0-43.36,43.07,42.76,42.76,0,0,0,11,28.7A33.07,33.07,0,0,1,507,309a41.56,41.56,0,0,1,14.75,8.62h3.88A41.45,41.45,0,0,1,540.34,309a33.13,33.13,0,0,1,16-1.26,42.73,42.73,0,0,0,11.15-28.82A43.21,43.21,0,0,0,524.09,235.83Z"/><path class="cls-4" d="M544.27,296.17q-2,1-4,2a41.82,41.82,0,0,0-3.79,2.33l-1.34,1,7.11-13.23-9.75,15.26q-1.49,1.19-2.91,2.43-2.36,2.06-4.6,4.2l-.5-14.35,10.2-15.52-10.27,13.35L524,280.77l-.74,14.38h0l-.73,14.41q-1.95-1.85-4-3.62c-1.07-.93-2.15-1.84-3.27-2.73l-9.22-15.74,6.77,13.89c-.39-.29-.77-.57-1.17-.85a39.22,39.22,0,0,0-3.79-2.33q-2-1.05-4-2a82.23,82.23,0,0,0-8.2-3.47,78.57,78.57,0,0,1,7.9,3.94q1.92,1.08,3.78,2.23a36.42,36.42,0,0,1,3.51,2.49,77,77,0,0,1,6.37,5.72c1.76,1.76,3.48,3.57,5.12,5.41l-.93,18.29h4.27l-.61-17.55c1.83-2.09,3.78-4.16,5.78-6.15a77,77,0,0,1,6.37-5.72,37.7,37.7,0,0,1,3.51-2.49q1.86-1.15,3.78-2.23a79.81,79.81,0,0,1,7.91-3.94A82.4,82.4,0,0,0,544.27,296.17Z"/><path class="cls-1" d="M191.2,294.92c0,12.38-6.94,13.31-15.5,13.31s-15.49-.93-15.49-13.31,6.93-38.23,15.49-38.23S191.2,282.55,191.2,294.92Z"/><polygon class="cls-4" points="180.94 300.54 178.38 300.71 185.06 296.21 180.29 298.62 180.94 296.74 178.76 299.39 176.21 300.69 176 291.8 177.36 288.51 175.97 290.36 175.85 285.21 180.1 279.55 175.82 283.93 175.56 272.59 175.33 279.84 172.61 276.81 175.29 281.24 174.93 292.73 172.56 291.18 170.4 287.35 171.26 290.34 167.02 287.56 174.88 294.34 173.69 332.07 176.92 332.07 176.24 302.16 176.99 301.65 180.94 300.54"/><path class="cls-1" d="M608,252.31c0,24.18-13.56,26-30.28,26s-30.28-1.82-30.28-26S561,177.6,577.73,177.6,608,228.14,608,252.31Z"/><path class="cls-5" d="M608,252.31c0,24.18-13.56,26-30.28,26s-30.28-1.82-30.28-26S561,177.6,577.73,177.6,608,228.14,608,252.31Z"/><polygon class="cls-4" points="587.97 263.28 582.96 263.63 596 254.83 586.69 259.54 587.97 255.86 583.71 261.05 578.71 263.57 578.31 246.21 580.96 239.79 578.25 243.4 578.02 233.34 586.32 222.27 577.96 230.82 577.46 208.67 577.01 222.85 571.68 216.91 576.92 225.57 576.21 248.04 571.58 245.01 567.36 237.52 569.05 243.35 560.76 237.93 576.12 251.18 573.79 324.9 580.11 324.9 578.78 266.45 580.24 265.46 587.97 263.28"/><path class="cls-1" d="M672.83,261.83c0,12.37-6.94,13.3-15.5,13.3s-15.5-.93-15.5-13.3,6.94-38.24,15.5-38.24S672.83,249.46,672.83,261.83Z"/><path class="cls-6" d="M672.83,261.83c0,12.37-6.94,13.3-15.5,13.3s-15.5-.93-15.5-13.3,6.94-38.24,15.5-38.24S672.83,249.46,672.83,261.83Z"/><polygon class="cls-4" points="662.57 267.44 660.01 267.62 666.68 263.12 661.91 265.53 662.57 263.64 660.39 266.3 657.83 267.59 657.63 258.71 658.98 255.42 657.6 257.27 657.48 252.12 661.73 246.45 657.45 250.83 657.19 239.49 656.96 246.75 654.24 243.71 656.92 248.14 656.56 259.64 654.18 258.09 652.02 254.26 652.89 257.24 648.65 254.47 656.5 261.25 655.32 298.98 658.55 298.98 657.87 269.06 658.61 268.56 662.57 267.44"/><path class="cls-1" d="M41.16,251.37c0,12.37-6.94,13.3-15.5,13.3s-15.5-.93-15.5-13.3,6.94-38.24,15.5-38.24S41.16,239,41.16,251.37Z"/><path class="cls-6" d="M41.16,251.37c0,12.37-6.94,13.3-15.5,13.3s-15.5-.93-15.5-13.3,6.94-38.24,15.5-38.24S41.16,239,41.16,251.37Z"/><polygon class="cls-4" points="30.9 256.98 28.34 257.16 35.01 252.66 30.25 255.07 30.9 253.18 28.72 255.84 26.16 257.13 25.96 248.24 27.31 244.96 25.93 246.81 25.81 241.65 30.06 235.99 25.78 240.37 25.52 229.03 25.29 236.29 22.57 233.25 25.25 237.68 24.89 249.18 22.51 247.63 20.35 243.8 21.22 246.78 16.98 244.01 24.84 250.78 23.64 288.51 26.88 288.51 26.2 258.6 26.94 258.1 30.9 256.98"/><path class="cls-1" d="M118,223.31a43.22,43.22,0,0,0-43.36,43.06,42.74,42.74,0,0,0,11,28.7,33.21,33.21,0,0,1,15.19,1.38,41.72,41.72,0,0,1,14.75,8.62h3.88a41.61,41.61,0,0,1,14.75-8.62,33.13,33.13,0,0,1,16-1.26,42.73,42.73,0,0,0,11.15-28.82A43.21,43.21,0,0,0,118,223.31Z"/><path class="cls-7" d="M118,223.31a43.22,43.22,0,0,0-43.36,43.06,42.74,42.74,0,0,0,11,28.7,33.21,33.21,0,0,1,15.19,1.38,41.72,41.72,0,0,1,14.75,8.62h3.88a41.61,41.61,0,0,1,14.75-8.62,33.13,33.13,0,0,1,16-1.26,42.73,42.73,0,0,0,11.15-28.82A43.21,43.21,0,0,0,118,223.31Z"/><path class="cls-4" d="M138.13,283.64c-1.33.65-2.65,1.31-4,2a39.77,39.77,0,0,0-3.79,2.34c-.45.31-.89.64-1.34,1l7.11-13.23L126.4,291c-1,.79-2,1.61-2.91,2.43q-2.35,2.05-4.6,4.21l-.5-14.36,10.2-15.52-10.27,13.35-.44-12.85-.74,14.38h0L116.41,297q-1.95-1.84-4-3.62c-1.07-.93-2.15-1.84-3.27-2.72l-9.22-15.75,6.77,13.89c-.39-.28-.77-.57-1.17-.84a37.41,37.41,0,0,0-3.79-2.34c-1.3-.7-2.62-1.36-4-2a82.23,82.23,0,0,0-8.2-3.47,80.75,80.75,0,0,1,7.9,3.94q1.92,1.08,3.78,2.23a37.84,37.84,0,0,1,3.52,2.49,76.84,76.84,0,0,1,6.36,5.73c1.76,1.75,3.48,3.56,5.12,5.4l-.93,18.29h4.27L119,300.7c1.83-2.09,3.78-4.15,5.79-6.14a75.26,75.26,0,0,1,6.36-5.73,37.7,37.7,0,0,1,3.51-2.49q1.86-1.15,3.78-2.23a82.05,82.05,0,0,1,7.91-3.94A82.4,82.4,0,0,0,138.13,283.64Z"/><path class="cls-4" d="M238.33,351.81V312.14H186.69v-25.4l44.29-105h37.79v105.6h16.37v24.77H268.77v39.67Zm-26-64.44h26V215.15Z"/><path class="cls-4" d="M346,351.9q-15.33,0-25.4-6.29a39.2,39.2,0,0,1-15.12-17.32q-5-11-5-25.51v-76.2q0-14.91,4.83-26.14a37.67,37.67,0,0,1,14.9-17.53q10.08-6.3,25.82-6.3,15.54,0,25.51,6.3a38,38,0,0,1,14.8,17.53q4.82,11.24,4.83,26.14v76.2q0,14.49-5,25.51A39.2,39.2,0,0,1,371,345.61Q360.92,351.9,346,351.9Zm0-28.55c3.78,0,6.51-1.18,8.19-3.57a20.41,20.41,0,0,0,3.36-8.5,55.62,55.62,0,0,0,.84-9.13V227.21a67,67,0,0,0-.74-9.66,20.35,20.35,0,0,0-3.25-8.71q-2.52-3.68-8.4-3.68t-8.5,3.68a19.59,19.59,0,0,0-3.36,8.71,67,67,0,0,0-.73,9.66v74.94a53.51,53.51,0,0,0,.84,9.13,18.81,18.81,0,0,0,3.56,8.5C339.65,322.17,342.38,323.35,346,323.35Z"/><path class="cls-4" d="M460.43,351.81V312.14H408.79v-25.4l44.29-105h37.79v105.6h16.37v24.77H490.87v39.67Zm-26-64.44h26V215.15Z"/><path class="cls-8" d="M692.6,269.8c-65.38,42.86-194.49,72-343.1,72-153.16,0-285.63-31-348.94-76V396.31h692Z"/><path class="cls-3" d="M678.4,278.35C609.58,316.5,488,341.83,349.5,341.83c-153.16,0-285.63-31-348.94-76"/><path class="cls-3" d="M692.9,269.61q-4.41,2.91-9.22,5.73"/><path class="cls-1" d="M650.86,259.82c0,25.28-14.18,27.19-31.66,27.19s-31.67-1.91-31.67-27.19,14.18-78.13,31.67-78.13S650.86,234.54,650.86,259.82Z"/><polygon class="cls-4" points="629.9 271.29 624.67 271.65 638.31 262.45 628.57 267.38 629.9 263.53 625.45 268.95 620.23 271.59 619.81 253.44 622.58 246.72 619.74 250.5 619.5 239.97 628.18 228.4 619.44 237.35 618.91 214.18 618.45 229.01 612.88 222.8 618.36 231.86 617.62 255.34 612.77 252.18 608.35 244.35 610.12 250.45 601.46 244.78 617.51 258.63 615.08 335.72 621.69 335.72 620.29 274.6 621.82 273.57 629.9 271.29"/><path class="cls-4" d="M617.06,336.4s-11.68-12.11-8.4-11.74,9.42,9.42,9.42,9.42.08-20,3-15.59-.67,15.67-.67,15.67,8.34-13,8.32-10.88c-.06,6.57-6.43,11.71-6.43,11.71s13.35-9.89,11.16-5.88-10.72,7.8-10.72,7.8,15.39-3.1,9.92-.92S622,339.68,622,339.68h-4.25s-14.53-7.29-9.06-6.19A27,27,0,0,1,617.06,336.4Z"/><path class="cls-4" d="M57.22,321.37S47.11,310.89,50,311.21s8.14,8.15,8.14,8.15.08-17.27,2.6-13.49-.58,13.56-.58,13.56,7.21-11.25,7.19-9.41c0,5.68-5.55,10.13-5.55,10.13s11.54-8.55,9.65-5.09-9.27,6.75-9.27,6.75,13.31-2.69,8.58-.8-9.23,3.19-9.23,3.19H57.8s-12.56-6.3-7.83-5.35A23.43,23.43,0,0,1,57.22,321.37Z"/><path class="cls-1" d="M93.75,246c0,25.3-14.19,27.21-31.7,27.21S30.36,271.34,30.36,246s14.19-78.22,31.69-78.22S93.75,220.73,93.75,246Z"/><polygon class="cls-4" points="72.77 257.52 67.53 257.88 81.19 248.67 71.43 253.6 72.77 249.75 68.31 255.18 63.08 257.82 62.67 239.65 65.44 232.93 62.6 236.71 62.36 226.17 71.05 214.59 62.3 223.54 61.77 200.35 61.3 215.19 55.73 208.98 61.21 218.05 60.47 241.56 55.62 238.39 51.2 230.55 52.97 236.66 44.3 230.98 60.37 244.84 57.93 322.02 64.55 322.02 63.15 260.83 64.68 259.8 72.77 257.52"/><path class="cls-4" d="M167.88,347.68s-10.11-10.47-7.27-10.16,8.15,8.15,8.15,8.15.07-17.27,2.59-13.48-.58,13.55-.58,13.55,7.21-11.25,7.2-9.41c-.05,5.68-5.56,10.13-5.56,10.13s11.55-8.55,9.66-5.09-9.28,6.75-9.28,6.75,13.31-2.69,8.58-.79-9.23,3.19-9.23,3.19h-3.67s-12.57-6.31-7.84-5.36A23.29,23.29,0,0,1,167.88,347.68Z"/><path class="cls-4" d="M221.53,370.63s-10.11-10.47-7.27-10.16,8.15,8.15,8.15,8.15.07-17.27,2.59-13.48-.58,13.55-.58,13.55,7.21-11.25,7.2-9.41c-.05,5.68-5.56,10.13-5.56,10.13s11.55-8.55,9.66-5.09-9.28,6.75-9.28,6.75,13.31-2.69,8.58-.79-9.23,3.19-9.23,3.19h-3.67s-12.57-6.31-7.84-5.36A23.29,23.29,0,0,1,221.53,370.63Z"/><path class="cls-4" d="M365.43,355.22s-7.29-7.56-5.24-7.33,5.88,5.88,5.88,5.88.05-12.46,1.87-9.73-.42,9.78-.42,9.78,5.2-8.11,5.19-6.79c0,4.1-4,7.31-4,7.31s8.33-6.17,7-3.67-6.69,4.87-6.69,4.87,9.6-1.94,6.19-.58-6.66,2.31-6.66,2.31h-2.65s-9.07-4.55-5.66-3.87A16.85,16.85,0,0,1,365.43,355.22Z"/><path class="cls-4" d="M648.46,337.14s-5.67-5.88-4.08-5.7S649,336,649,336s0-9.69,1.46-7.56-.32,7.6-.32,7.6,4-6.31,4-5.28c0,3.19-3.11,5.69-3.11,5.69s6.48-4.8,5.41-2.86-5.2,3.79-5.2,3.79,7.47-1.51,4.81-.45-5.18,1.8-5.18,1.8h-2.06s-7-3.54-4.4-3A13.17,13.17,0,0,1,648.46,337.14Z"/><path class="cls-1" d="M266.39,355.26s-10.1-10.47-7.27-10.16,8.15,8.15,8.15,8.15.07-17.27,2.59-13.48-.57,13.55-.57,13.55,7.21-11.25,7.19-9.41c-.05,5.68-5.55,10.13-5.55,10.13s11.54-8.55,9.65-5.09-9.27,6.75-9.27,6.75,13.3-2.69,8.58-.79-9.23,3.19-9.23,3.19H267s-12.57-6.31-7.84-5.36A23.29,23.29,0,0,1,266.39,355.26Z"/><path class="cls-1" d="M193.45,348.3s-6.78-7-4.87-6.81S194,347,194,347s.05-11.57,1.74-9-.39,9.09-.39,9.09,4.84-7.54,4.83-6.31c0,3.81-3.73,6.79-3.73,6.79s7.74-5.73,6.47-3.41-6.21,4.53-6.21,4.53,8.92-1.8,5.75-.54-6.19,2.14-6.19,2.14h-2.46s-8.43-4.22-5.26-3.59A15.61,15.61,0,0,1,193.45,348.3Z"/><path class="cls-1" d="M108.75,376s-6.77-7-4.87-6.81,5.46,5.46,5.46,5.46,0-11.57,1.74-9-.39,9.09-.39,9.09,4.84-7.54,4.83-6.31c0,3.81-3.73,6.79-3.73,6.79s7.75-5.73,6.48-3.41-6.22,4.53-6.22,4.53,8.92-1.8,5.75-.54-6.19,2.14-6.19,2.14h-2.46s-8.43-4.22-5.26-3.59A15.61,15.61,0,0,1,108.75,376Z"/><path class="cls-1" d="M335.52,377.4s-6.78-7-4.87-6.81,5.46,5.46,5.46,5.46.05-11.57,1.74-9-.39,9.09-.39,9.09,4.84-7.54,4.83-6.31c0,3.81-3.73,6.79-3.73,6.79s7.74-5.73,6.47-3.41-6.21,4.53-6.21,4.53,8.92-1.8,5.75-.53-6.19,2.13-6.19,2.13h-2.46s-8.43-4.22-5.26-3.59A15.93,15.93,0,0,1,335.52,377.4Z"/><path class="cls-1" d="M445.49,377.77s-6.77-7-4.87-6.81,5.46,5.46,5.46,5.46.05-11.58,1.74-9-.38,9.09-.38,9.09,4.83-7.54,4.82-6.31c0,3.81-3.73,6.79-3.73,6.79s7.75-5.73,6.48-3.41-6.22,4.52-6.22,4.52,8.92-1.8,5.75-.53-6.19,2.14-6.19,2.14h-2.46s-8.43-4.23-5.26-3.59A15.61,15.61,0,0,1,445.49,377.77Z"/><path class="cls-1" d="M650,355.8s-10.32-10.69-7.42-10.37,8.31,8.32,8.31,8.32.08-17.63,2.65-13.77-.58,13.84-.58,13.84,7.36-11.48,7.34-9.61c0,5.81-5.67,10.34-5.67,10.34s11.78-8.73,9.85-5.19-9.46,6.89-9.46,6.89,13.58-2.74,8.76-.81-9.43,3.26-9.43,3.26h-3.75s-12.83-6.44-8-5.48A23.94,23.94,0,0,1,650,355.8Z"/><path class="cls-1" d="M35,355.8s-10.32-10.69-7.42-10.37,8.31,8.32,8.31,8.32S36,336.12,38.57,340,38,353.82,38,353.82s7.36-11.48,7.35-9.61c0,5.81-5.67,10.34-5.67,10.34s11.78-8.73,9.85-5.19S40,356.25,40,356.25s13.59-2.74,8.76-.81-9.42,3.26-9.42,3.26H35.63s-12.83-6.44-8-5.48A24.08,24.08,0,0,1,35,355.8Z"/><path class="cls-1" d="M85.94,340.7s-10.56-18.21-7.55-19.62,9.24,12.45,9.24,12.45-1.21-26.1,1.6-23.69,5.43,20.88,5.43,20.88,5.62-20.08,7.43-15.86-1.45,17-1.45,17,8.07-15.38,8.88-10.36-3.82,13.26-3.82,13.26,10.65-10.64,11.45-6.43-2.81,8.44-2.81,8.44,14.06-7.63,10.64-3.42-8.43,9.64-8.43,9.64,13.45-4.82,11.85-2-7.64,5.82-7.64,5.82,11-2,9.84-.2a16.1,16.1,0,0,1-4,3.58h-50s-13.25-4.79-8-5.19a23,23,0,0,1,10,1.81S62.32,335.74,70,334.94s13.86,8.84,13.86,8.84-10.84-15.27-7-12.86Z"/><path class="cls-9" d="M86.62,345.88S73,331.75,76.81,332.18s11,11,11,11,.1-23.29,3.5-18.19-.78,18.29-.78,18.29,9.73-15.17,9.71-12.7c-.07,7.67-7.5,13.67-7.5,13.67s15.58-11.54,13-6.86-12.5,9.1-12.5,9.1,18-3.62,11.57-1.07-12.45,4.3-12.45,4.3h-5s-17-8.5-10.57-7.23A31.8,31.8,0,0,1,86.62,345.88Z"/><path class="cls-1" d="M535.69,372.75s-20-34.43-14.27-37.09,17.47,23.54,17.47,23.54-2.28-49.35,3-44.79,10.25,39.47,10.25,39.47,10.63-37.95,14.05-30S563.49,356,563.49,356s15.25-29.06,16.77-19.57-7.21,25.06-7.21,25.06,20.12-20.12,21.64-12.15-5.32,15.94-5.32,15.94,26.57-14.42,20.12-6.45S593.55,377,593.55,377s25.43-9.11,22.39-3.8-14.42,11-14.42,11,20.88-3.79,18.6-.38-7.58,6.77-7.58,6.77H518s-25.05-9.05-15.18-9.8,19,3.41,19,3.41-30.74-20.88-16.32-22.39,26.19,16.7,26.19,16.7-20.49-28.85-13.28-24.3Z"/><path class="cls-9" d="M537,382.54s-25.77-26.7-18.54-25.9,20.77,20.77,20.77,20.77.19-44,6.62-34.37-1.47,34.56-1.47,34.56,18.38-28.68,18.34-24c-.13,14.49-14.16,25.83-14.16,25.83s29.43-21.81,24.61-13-23.64,17.2-23.64,17.2,33.93-6.84,21.87-2-23.53,8.13-23.53,8.13h-9.37s-32.05-16.07-20-13.66S537,382.54,537,382.54Z"/><path class="cls-10" d="M120.34,341.73s2-1.84,3.79-1.84,7.1,2.57,7.1,2.57,2.14,3.3,2.33,3.49,2.83,1.32,3,1.78.58,2,.58,2H120.82l-3-7.91Z"/><path class="cls-4" d="M124.13,339.89l-.1,1.55s4.19,2.44,4.09,3.31a16.56,16.56,0,0,1-1,2.92l2.14,2.24H117.91l.87-6.72S121.21,339.69,124.13,339.89Z"/><path class="cls-10" d="M99,340.76s8.17-12.25,10-12.45a9.11,9.11,0,0,1,7.19,3.89,44.89,44.89,0,0,1,2.92,7.78c.1.3.49.49,2.72,4.09s2.14,5.64,2.14,5.64H92.43a19.34,19.34,0,0,1,1.84-5.06,7.33,7.33,0,0,1,3.89-2.53Z"/><path class="cls-4" d="M111.58,349.52s-.87-2.14-1-2.44-.09-3.11-.39-4.27A30,30,0,0,0,107.5,338l1.75-5.06-.87-.68,1.45-3.6-.81-.38c-1.92.35-10,12.44-10,12.44l-.88,1.36a7.33,7.33,0,0,0-3.89,2.53,18.33,18.33,0,0,0-1.8,4.87Z"/><path class="cls-10" d="M435.33,344.78a4.57,4.57,0,0,1,2.38-1.16c1.1,0,4.45,1.62,4.45,1.62s1.34,2.06,1.46,2.19,1.77.82,1.89,1.11.37,1.24.37,1.24H435.64l-1.9-5Z"/><path class="cls-4" d="M437.71,343.62l-.06,1s2.62,1.52,2.56,2.07a10.16,10.16,0,0,1-.61,1.83l1.34,1.41h-7.13l.54-4.21S435.88,343.5,437.71,343.62Z"/><path class="cls-10" d="M422,344.17s5.12-7.68,6.28-7.8a5.68,5.68,0,0,1,4.51,2.44,27.92,27.92,0,0,1,1.83,4.88c.06.18.3.3,1.71,2.56a7,7,0,0,1,1.34,3.53H417.83a12.13,12.13,0,0,1,1.16-3.17,4.51,4.51,0,0,1,2.44-1.58Z"/><path class="cls-4" d="M429.84,349.66s-.55-1.34-.61-1.52-.06-1.95-.24-2.69a18.56,18.56,0,0,0-1.71-3l1.1-3.18-.55-.42.91-2.26-.51-.24c-1.2.22-6.25,7.8-6.25,7.8l-.55.86a4.51,4.51,0,0,0-2.44,1.58,11.17,11.17,0,0,0-1.13,3.05Z"/><path class="cls-10" d="M600.71,374.7s3.86-3.49,7.17-3.49,13.42,4.86,13.42,4.86,4.05,6.23,4.41,6.6,5.33,2.49,5.7,3.37,1.11,3.73,1.11,3.73H601.63l-5.7-14.95Z"/><path class="cls-4" d="M607.88,371.21l-.18,2.94s7.9,4.59,7.72,6.25a30.64,30.64,0,0,1-1.84,5.51l4,4.23H596.12l1.65-12.68S602.37,370.84,607.88,371.21Z"/><path class="cls-10" d="M560.46,372.86s15.44-23.16,18.93-23.53,10.85,2.58,13.6,7.36,5.33,14.15,5.52,14.7.92.92,5.14,7.72,4.05,10.66,4.05,10.66H548s1.28-6.06,3.49-9.55,7.35-4.78,7.35-4.78Z"/><path class="cls-4" d="M584.17,389.41s-1.66-4.05-1.84-4.6-.18-5.88-.73-8.09-5.15-9-5.15-9l3.31-9.55-1.66-1.29,2.76-6.8-1.54-.72c-3.62.65-18.86,23.51-18.86,23.51l-1.66,2.58s-5.15,1.28-7.35,4.78c-1.89,3-3.1,7.84-3.41,9.19Z"/></g></g></svg>