<svg xmlns="http://www.w3.org/2000/svg" viewBox="0 0 272.24 50">
    <defs>
        <style>.cls-1{fill:#fff;}</style>
    </defs>
    <g id="Layer_2" data-name="Layer 2">
        <g id="Layer_1-2" data-name="Layer 1">
            <g id="Layer_2-2" data-name="Layer 2">
                <g id="Layer_1-2-2" data-name="Layer 1-2">
                    <path class="cls-1"
                        d="M49.88,31.45A25.42,25.42,0,1,1,18.49.06,22.23,22.23,0,1,0,49.88,31.45Z" />
                    <path class="cls-1"
                        d="M22.08,11l8.32-1.2a.91.91,0,0,0,.78-.56c1.14-2.28,2.3-4.54,3.47-6.81l.3-.56.28.51c1.18,2.26,2.38,4.54,3.55,6.81a1,1,0,0,0,.88.61l7.91,1.11L48,11l-.39.4c-1.87,1.73-3.71,3.57-5.53,5.37a1.08,1.08,0,0,0-.36,1.16c.47,2.59.9,5.19,1.34,7.8a4.34,4.34,0,0,1,0,.51L42.55,26c-2.36-1.23-4.75-2.43-7.1-3.68a1,1,0,0,0-1,0c-2.3,1.23-4.6,2.43-6.89,3.65l-.6.3c.1-.63.19-1.17.29-1.7.37-2.28.74-4.54,1.15-6.8a.86.86,0,0,0-.3-.87c-1.91-1.82-3.8-3.68-5.72-5.52a1.29,1.29,0,0,0-.42-.26Z" />
                </g>
            </g>
            <path class="cls-1"
                d="M102.79,33.65q-.29.63-.63,1.47c-.18-.42-.37-.87-.58-1.34L87.81,2.48H78.32V49.27h8.25V19.66L99.81,49.27h4.66l13.08-29.42V49.27H126V2.48h-9.12Z" />
            <path class="cls-1"
                d="M153.48,34.45a8.58,8.58,0,0,1-1.94,5.91,5.94,5.94,0,0,1-4.72,2.11c-2.72,0-5.84-.92-5.84-8.14V14.9h-8.29V35.12c0,12.3,6.94,14.88,12.77,14.88a12,12,0,0,0,8-2.72v2h8.31V14.9h-8.31Z" />
            <path class="cls-1"
                d="M187.57,32.41a14.84,14.84,0,0,0-3.15-2.13,40.56,40.56,0,0,0-3.85-1.69l-2.71-1.1a8.2,8.2,0,0,1-1.71-.95,2.89,2.89,0,0,1-.82-.91,2.65,2.65,0,0,1-.24-1.24,1.9,1.9,0,0,1,.24-1,2.42,2.42,0,0,1,.74-.83,4.84,4.84,0,0,1,1.41-.64,7.55,7.55,0,0,1,2.06-.25,12.35,12.35,0,0,1,7,2l2.59,1.7V16.15l-1-.44a19.47,19.47,0,0,0-7.88-1.53,18.63,18.63,0,0,0-4.84.63,14.12,14.12,0,0,0-4.31,2,10.49,10.49,0,0,0-3.16,3.34,9.11,9.11,0,0,0-1.24,4.72,10.11,10.11,0,0,0,.65,3.74,8.78,8.78,0,0,0,1.95,2.94,12.65,12.65,0,0,0,3,2.17,37.52,37.52,0,0,0,3.8,1.74c1,.37,1.89.74,2.74,1.09a10.4,10.4,0,0,1,1.92,1,3.88,3.88,0,0,1,1.07,1.07,2.1,2.1,0,0,1,.29,1.19c0,.81,0,2.69-4.87,2.69a12.93,12.93,0,0,1-7.94-2.67l-2.67-2v9.66l.9.47a19.36,19.36,0,0,0,9.08,2,21.19,21.19,0,0,0,5-.59,14.07,14.07,0,0,0,4.43-1.9,10.43,10.43,0,0,0,3.23-3.35,9.35,9.35,0,0,0,1.25-4.86,9.52,9.52,0,0,0-.77-3.94A9.17,9.17,0,0,0,187.57,32.41Z" />
            <rect class="cls-1" x="194.8" width="8.32" height="49.27" />
            <rect class="cls-1" x="209.82" y="14.9" width="8.32" height="34.37" />
            <path class="cls-1"
                d="M214,.58a4.85,4.85,0,0,0-4.89,4.91A4.8,4.8,0,0,0,210.6,9a5,5,0,0,0,6.93,0A4.79,4.79,0,0,0,219,5.49,4.79,4.79,0,0,0,217.52,2,4.9,4.9,0,0,0,214,.58Z" />
            <path class="cls-1"
                d="M260.33,14.18a12.32,12.32,0,0,0-10.07,4.7,10.5,10.5,0,0,0-2.47-2.6,10.7,10.7,0,0,0-6.55-2.1A12.07,12.07,0,0,0,233.16,17V14.9h-8.31V49.27h8.31V29.91a9.79,9.79,0,0,1,1.77-6.11A4.85,4.85,0,0,1,239,21.71c2.51,0,5.39.85,5.39,7.47V49.27h8.31V29.91A9.44,9.44,0,0,1,254.58,24a5,5,0,0,1,4.08-2.25c1.94,0,3.24.51,4,1.58.59.85,1.3,2.67,1.3,6.5V49.27h8.31V28.48C272.24,16.66,265.76,14.18,260.33,14.18Z" />
        </g>
    </g>
</svg>