<svg xmlns="http://www.w3.org/2000/svg" viewBox="0 0 192 82.03"><defs><style>.cls-1{fill:#fff;}.cls-2{fill:#bf9759;}</style></defs><g id="Layer_2" data-name="Layer 2"><g id="Layer_1-2" data-name="Layer 1"><path class="cls-1" d="M96,0c1,1.49,4.75,6.12,14.87,6.12,12.06,0,29.63-2.62,29.63,5a6.63,6.63,0,0,1,7.09-3.4c4.19.82,4.57,3.66,4.57,7.2,0,0,11.39-2.3,19.53,0,6.06,1.72,5.58,12.49,7.13,16.11,1.4,3.28,6.48,8.42,13.18,10-6.7,1.59-11.78,6.73-13.18,10-1.55,3.61-1.07,14.39-7.13,16.11-8.14,2.3-19.53,0-19.53,0,0,3.54-.38,6.38-4.57,7.19a6.62,6.62,0,0,1-7.09-3.39c0,7.6-17.57,5-29.63,5C100.75,75.91,97,80.54,96,82c-1-1.49-4.75-6.12-14.87-6.12-12.06,0-29.63,2.62-29.63-5a6.62,6.62,0,0,1-7.09,3.39c-4.19-.81-4.57-3.65-4.57-7.19,0,0-11.39,2.3-19.53,0-6.06-1.72-5.58-12.5-7.13-16.11C11.78,47.74,6.7,42.6,0,41c6.7-1.58,11.78-6.72,13.18-10,1.55-3.62,1.07-14.39,7.13-16.11,8.14-2.3,19.53,0,19.53,0,0-3.54.38-6.38,4.57-7.2a6.63,6.63,0,0,1,7.09,3.4c0-7.6,17.57-5,29.63-5C91.25,6.12,95,1.49,96,0Z"/><g id="Layer_2-2" data-name="Layer 2"><g id="Layer_1-2-2" data-name="Layer 1-2"><path class="cls-2" d="M68.6,46.28A20.76,20.76,0,1,1,43,20.65,18.15,18.15,0,1,0,68.6,46.28Z"/><path class="cls-2" d="M45.89,29.56l6.8-1a.76.76,0,0,0,.64-.46q1.39-2.79,2.84-5.56l.24-.46.23.42c1,1.84,1.94,3.7,2.9,5.56a.82.82,0,0,0,.71.5l6.47.9.35.08-.32.33c-1.52,1.41-3,2.91-4.51,4.37a.9.9,0,0,0-.3,1c.38,2.11.74,4.24,1.1,6.36A2.94,2.94,0,0,1,63,42l-.42-.2c-1.94-1-3.88-2-5.81-3a.76.76,0,0,0-.82,0c-1.87,1-3.76,2-5.63,3l-.48.25c.07-.51.15-1,.23-1.39q.45-2.79.94-5.55a.7.7,0,0,0-.24-.71c-1.57-1.49-3.11-3-4.67-4.51a1.59,1.59,0,0,0-.35-.22Z"/></g></g><path class="cls-2" d="M90.21,43.66a18,18,0,0,1,.92-2.92,12.12,12.12,0,0,1,1.13-2.11,7.38,7.38,0,0,1,1.24-1.42,6.46,6.46,0,0,1,1.22-.85,4.28,4.28,0,0,1,1.11-.42,3.9,3.9,0,0,1,.87-.12,4.38,4.38,0,0,1,1.5.26,5.13,5.13,0,0,1,1.33.7,5.74,5.74,0,0,1,1.11,1,7.87,7.87,0,0,1,.88,1.28,9.28,9.28,0,0,1,.64,1.4,7.32,7.32,0,0,1,.38,1.44,8.57,8.57,0,0,0,.2.92,2,2,0,0,0,.36.71,1.73,1.73,0,0,0,.69.45,3.93,3.93,0,0,0,1.21.15v3.68h-.4a4.17,4.17,0,0,1-1.91-.38,3.29,3.29,0,0,1-1.28-1.19h-.1a4.63,4.63,0,0,1-1.61,1.18,5.25,5.25,0,0,1-2.15.41,9.15,9.15,0,0,1-1.63-.15c-.54-.1-1.08-.21-1.61-.33l-1.52-.33a6.81,6.81,0,0,0-1.36-.15,2.83,2.83,0,0,0-1,.17,1.59,1.59,0,0,0-.64.48,2,2,0,0,0-.32.75,5.06,5.06,0,0,0-.09,1q0,.47.06,1.11c0,.43.11.9.2,1.42s.21,1.06.36,1.63.32,1.17.53,1.78H87c-.31-1.23-.56-2.33-.73-3.31a15.21,15.21,0,0,1-.25-2.6,7.19,7.19,0,0,1,.29-2.14,5.51,5.51,0,0,1,.84-1.68,4.8,4.8,0,0,1,1.31-1.19A5.64,5.64,0,0,1,90.21,43.66Zm2.87,0c.72.12,1.45.26,2.17.42a10.2,10.2,0,0,0,2.22.24,5.52,5.52,0,0,0,.71-.05,1.7,1.7,0,0,0,.61-.21,1.24,1.24,0,0,0,.42-.4,1.29,1.29,0,0,0,.15-.66,3.29,3.29,0,0,0-.21-1,4.46,4.46,0,0,0-.61-1.16,3.86,3.86,0,0,0-.94-1,1.91,1.91,0,0,0-1.18-.4,2.05,2.05,0,0,0-1.09.3,3.12,3.12,0,0,0-.9.85,7.3,7.3,0,0,0-.74,1.32A14.9,14.9,0,0,0,93.08,43.65Z"/><path class="cls-2" d="M106.41,50.86h8.71V52.5h-8.71Z"/><path class="cls-2" d="M113.44,40.93c0,.56,0,1,0,1.45a2,2,0,0,0,.32,1,1.62,1.62,0,0,0,.84.59,5.23,5.23,0,0,0,1.61.19v3.68h-.66a6.16,6.16,0,0,1-2.45-.42,2.9,2.9,0,0,1-1.45-1.33h-.09a3.71,3.71,0,0,1-1,.86,5,5,0,0,1-1.11.54,5.3,5.3,0,0,1-1.16.28,8.55,8.55,0,0,1-1.1.07H105a.92.92,0,0,1-.87-.5,3.22,3.22,0,0,1,0-2.67.93.93,0,0,1,.87-.51h2.45a8,8,0,0,0,1.15-.07,2,2,0,0,0,.86-.31,1.42,1.42,0,0,0,.52-.67,2.84,2.84,0,0,0,.19-1.15V24.76h3.27Z"/><path class="cls-2" d="M123.68,24.67a3.71,3.71,0,0,1,1.31.22,3.41,3.41,0,0,1,1.05.61,2.8,2.8,0,0,1,.7.9,2.52,2.52,0,0,1,.25,1.12,2.59,2.59,0,0,1-.25,1.13,2.8,2.8,0,0,1-.7.9,3.2,3.2,0,0,1-1.05.6,3.71,3.71,0,0,1-1.31.22,4,4,0,0,1-1.36-.22,3,3,0,0,1-1-.6,2.59,2.59,0,0,1-.67-.9,2.73,2.73,0,0,1-.24-1.13,2.65,2.65,0,0,1,.24-1.12,2.78,2.78,0,0,1,.69-.9,3.25,3.25,0,0,1,1-.61A3.9,3.9,0,0,1,123.68,24.67Zm0,4.19a1.32,1.32,0,0,0,1-.37,1.37,1.37,0,0,0,.33-1,1.4,1.4,0,0,0-.33-1,1.56,1.56,0,0,0-2,0,1.36,1.36,0,0,0-.34,1,1.34,1.34,0,0,0,.34,1A1.32,1.32,0,0,0,123.68,28.86Z"/><path class="cls-2" d="M124.7,37.78V41c0,.55,0,1,.06,1.42a2.23,2.23,0,0,0,.31,1,1.42,1.42,0,0,0,.74.59,4.27,4.27,0,0,0,1.38.18,8,8,0,0,0,1-.06,2.31,2.31,0,0,0,.86-.3,1.7,1.7,0,0,0,.6-.67,2.43,2.43,0,0,0,.23-1.17V37.78h3.28v3.15c0,.56,0,1,.06,1.45a2.15,2.15,0,0,0,.32,1,1.55,1.55,0,0,0,.8.59,4.49,4.49,0,0,0,1.49.19,7.79,7.79,0,0,0,1-.06,1.92,1.92,0,0,0,.79-.3,1.52,1.52,0,0,0,.52-.66,2.93,2.93,0,0,0,.19-1.18V35h3.28v5.89c0,.56,0,1,0,1.47a2.21,2.21,0,0,0,.33,1,1.59,1.59,0,0,0,.84.61,4.79,4.79,0,0,0,1.6.2v3.68h-.59a6.27,6.27,0,0,1-2.3-.36,3.26,3.26,0,0,1-1.47-1.21H140a3.7,3.7,0,0,1-.91.78,5.49,5.49,0,0,1-1,.48,6,6,0,0,1-1.11.25,10.69,10.69,0,0,1-1.13.06,9.12,9.12,0,0,1-1.29-.08,5.36,5.36,0,0,1-1.18-.28,4,4,0,0,1-1-.53,3.13,3.13,0,0,1-.79-.83h-.07a4.33,4.33,0,0,1-1,.82,6.4,6.4,0,0,1-1.12.54,6.21,6.21,0,0,1-1.17.28,7.43,7.43,0,0,1-1.11.08,6.74,6.74,0,0,1-2.53-.4,3.34,3.34,0,0,1-1.58-1.32h-.07a4.55,4.55,0,0,1-1,.82,5.83,5.83,0,0,1-2.3.82,7.25,7.25,0,0,1-1.11.08h-2.17a.93.93,0,0,1-.87-.5,3.22,3.22,0,0,1,0-2.67.94.94,0,0,1,.87-.51h2.34a5.31,5.31,0,0,0,.93-.08,2.78,2.78,0,0,0,.93-.32,2,2,0,0,0,.7-.67,2,2,0,0,0,.28-1.13V37.78Z"/><path class="cls-2" d="M151.84,32.16l-.84-.6c-.24-.18-.45-.34-.61-.48l-.36,0-.37,0-.33,0h-.21a16.22,16.22,0,0,1-1.93-.11,18,18,0,0,1-1.84-.36l.34-1.47c.53.13,1,.24,1.46.32a10.37,10.37,0,0,0,1.39.15h.56v0s0,0,0,0a3.08,3.08,0,0,1-.74-1.88,2.16,2.16,0,0,1,.26-1.06,2.57,2.57,0,0,1,.7-.77,3.31,3.31,0,0,1,1-.48,4,4,0,0,1,1.13-.17,3.84,3.84,0,0,1,1.07.15,2.68,2.68,0,0,1,.94.47,2.2,2.2,0,0,1,.66.79,2.38,2.38,0,0,1,.25,1.13,2.47,2.47,0,0,1-.54,1.62,3.88,3.88,0,0,1-1.52,1.07,1.21,1.21,0,0,0,.2.19l.43.3Zm.62-4.3a.9.9,0,0,0-.33-.78,1.19,1.19,0,0,0-.75-.25,1.44,1.44,0,0,0-.8.24.84.84,0,0,0-.36.75,1.62,1.62,0,0,0,.23.79,4,4,0,0,0,.61.8,2.55,2.55,0,0,0,1-.59A1.3,1.3,0,0,0,152.46,27.86Z"/><path class="cls-2" d="M155,36.16a6.06,6.06,0,0,1,2.78.59,6.16,6.16,0,0,1,2,1.52,6.53,6.53,0,0,1,1.18,2.06,7,7,0,0,1,.38,2.21,5.35,5.35,0,0,1-.4,2.08,4.83,4.83,0,0,1-1.18,1.69,5.42,5.42,0,0,1-1.88,1.13,7.07,7.07,0,0,1-2.51.41,8.26,8.26,0,0,1-1.68-.16,10.09,10.09,0,0,1-1.53-.44,9.42,9.42,0,0,1-1.35-.67,8.4,8.4,0,0,1-1.14-.84,5,5,0,0,1-2.25,1.64,8.07,8.07,0,0,1-2.8.47h-.17a.92.92,0,0,1-.86-.5,3.22,3.22,0,0,1,0-2.67.93.93,0,0,1,.86-.51h.28a4.09,4.09,0,0,0,1.74-.33A4,4,0,0,0,147.6,43a5.17,5.17,0,0,0,.78-1.13c.21-.41.4-.81.59-1.19q.42-.84.93-1.65a7.05,7.05,0,0,1,1.22-1.44A5.55,5.55,0,0,1,155,36.16Zm-3.79,6.77a4.66,4.66,0,0,0,1.7.92,8.14,8.14,0,0,0,2.44.31,8.23,8.23,0,0,0,1-.06,3,3,0,0,0,.86-.22,1.39,1.39,0,0,0,.59-.43,1,1,0,0,0,.23-.67,2.89,2.89,0,0,0-.17-.84,3.22,3.22,0,0,0-.54-1,3.18,3.18,0,0,0-1-.82,3,3,0,0,0-1.49-.34,3.15,3.15,0,0,0-1.26.24,3.48,3.48,0,0,0-1,.66,4.91,4.91,0,0,0-.79,1A8.54,8.54,0,0,0,151.19,42.93Z"/></g></g></svg>