<svg xmlns="http://www.w3.org/2000/svg" viewBox="0 0 32 32">
    <defs>
        <style>
            * {
            fill: #bf9759;
            }
        </style>
    </defs>
    <g id="Layer_2" data-name="Layer 2">
        <g id="Layer_1-2" data-name="Layer 1">
            <path
                d="M32,20.14A16.31,16.31,0,1,1,11.86,0a14.26,14.26,0,0,0,9.55,24.86A14.18,14.18,0,0,0,32,20.14Z" />
            <path
                d="M14.16,7l5.34-.77a.58.58,0,0,0,.5-.36c.73-1.46,1.48-2.91,2.23-4.37l.19-.36.18.33c.76,1.45,1.53,2.91,2.28,4.37a.64.64,0,0,0,.56.39l5.08.71L30.8,7l-.25.26C29.35,8.37,28.17,9.55,27,10.7a.7.7,0,0,0-.23.75c.3,1.66.58,3.33.86,5a2.29,2.29,0,0,1,0,.33l-.33-.16c-1.52-.79-3.05-1.56-4.56-2.36a.63.63,0,0,0-.65,0c-1.47.79-2.95,1.56-4.42,2.34l-.38.19c.06-.4.12-.75.18-1.09.24-1.46.48-2.91.74-4.36a.55.55,0,0,0-.19-.56c-1.23-1.17-2.44-2.36-3.67-3.54a1,1,0,0,0-.27-.17Z" />
        </g>
    </g>
</svg>