<?xml version="1.0" encoding="utf-8"?>
<!-- Generator: Adobe Illustrator 27.3.1, SVG Export Plug-In . SVG Version: 6.00 Build 0)  -->
<svg version="1.1" id="Layer_2_00000000213445772724691460000011312583768344288386_"
	 xmlns="http://www.w3.org/2000/svg" xmlns:xlink="http://www.w3.org/1999/xlink" x="0px" y="0px" viewBox="0 0 512 512"
	 style="enable-background:new 0 0 512 512;" xml:space="preserve">
<path d="M451.9,174.9L437,75l-99.8-14.9L256,0l-81.1,60.1L75,75l-14.9,99.8L0,256l60.1,81.1L75,437l99.8,14.9L256,512l81.1-60.1
	L437,437l14.9-99.8L512,256L451.9,174.9z M256,492.6l-75-55.5l-92.3-13.8l-13.4-90l-0.4-2.3l-55.5-75L73.5,183l1.4-2l13.8-92.3
	l90-13.4l2.3-0.4l75-55.5l73,54.2l2,1.4l92.3,13.8l13.4,89.9l0.4,2.3l55.5,75L437,331l-13.8,92.3l-89.9,13.4l-2.3,0.4L256,492.6z"/>
</svg>
