<?xml version="1.0" encoding="utf-8"?>
<!-- Generator: Adobe Illustrator 27.3.1, SVG Export Plug-In . SVG Version: 6.00 Build 0)  -->
<svg version="1.1" id="Layer_2_00000000213445772724691460000011312583768344288386_"
	 xmlns="http://www.w3.org/2000/svg" xmlns:xlink="http://www.w3.org/1999/xlink" x="0px" y="0px" viewBox="0 0 512 512"
	 style="enable-background:new 0 0 512 512;" xml:space="preserve">
<g>
	<g>
		<path fill="currentColor" d="M256,6.2l78.4,58l0.8,0.6l1,0.1l96.5,14.4l14.4,96.5l0.1,1l0.6,0.8l58,78.4l-58,78.4l-0.6,0.8l-0.1,1l-14.4,96.5
			l-96.5,14.4l-1,0.1l-0.8,0.6l-78.4,58l-78.4-58l-0.8-0.6l-1-0.1l-96.5-14.4l-14.4-96.5l-0.1-1l-0.6-0.8L6.2,256l58-78.4l0.6-0.8
			l0.1-1l14.4-96.5l96.5-14.4l1-0.1l0.8-0.6L256,6.2 M256,1.2L175.2,61L75.9,75.9L61,175.2L1.2,256L61,336.8l14.8,99.4l99.4,14.8
			l80.8,59.8l80.8-59.8l99.4-14.8l14.8-99.4l59.8-80.8L451,175.2l-14.8-99.4L336.8,61L256,1.2L256,1.2z"/>
		<path fill="currentColor" d="M256,512l-81.2-60.1L75,437l-14.9-99.9L0,256l60.1-81.2L75,75l99.9-14.9L256,0l81.2,60.1L437,75l14.9,99.9L512,256
			l-60.1,81.2L437,437l-99.9,14.9L256,512z M76.7,435.3l98.9,14.8l0.2,0.1l80.2,59.3l80.4-59.5l0.2,0l98.6-14.7l14.8-98.9l0.1-0.2
			l59.3-80.2L450,175.6l0-0.2l-14.7-98.6L336.4,62l-0.2-0.1L256,2.5L175.6,62l-0.2,0L76.7,76.7L62,175.6l-0.1,0.2L2.5,256L62,336.4
			l0,0.2L76.7,435.3z M256,507.1l-79.6-58.9l-0.7-0.1l-97.2-14.5l-14.6-97.9l-0.4-0.6L5,256l58.9-79.6l0.1-0.7l14.5-97.2l97.9-14.6
			l0.6-0.4L256,5l79.6,58.9l0.7,0.1l97.2,14.5l14.6,97.9l0.4,0.6l58.5,79l-58.9,79.6l-0.1,0.7l-14.5,97.2l-97.9,14.6l-0.6,0.4
			L256,507.1z M80.2,431.8l97,14.5l78.8,58.3l78.8-58.3l1.2-0.2l95.7-14.3l14.5-97l58.3-78.8l-58.3-78.8l-0.2-1.2l-14.3-95.7
			l-97-14.5l-1-0.7L256,7.4l-78.8,58.3l-1.2,0.2L80.2,80.2l-14.5,97l-0.7,1L7.4,256l58.3,78.8l0.2,1.2L80.2,431.8z"/>
	</g>
	<g>
		<path fill="currentColor" d="M256,37.5l68.5,50.7l0.8,0.6l1,0.1l84.3,12.6l12.6,84.3l0.1,1l0.6,0.8l50.7,68.5l-50.7,68.5l-0.6,0.8l-0.1,1l-12.6,84.3
			l-84.3,12.6l-1,0.1l-0.8,0.6L256,474.5l-68.5-50.7l-0.8-0.6l-1-0.1l-84.3-12.6l-12.6-84.3l-0.1-1l-0.6-0.8L37.5,256l50.7-68.5
			l0.6-0.8l0.1-1l12.6-84.3l84.3-12.6l1-0.1l0.8-0.6L256,37.5 M256,32.5L185.2,85L98,98l-13,87.2L32.5,256L85,326.9L98,414l87.2,13
			l70.8,52.4l70.8-52.4l87.2-13l13-87.2l52.4-70.8L427,185.2L414,98l-87.2-13L256,32.5C256,32.5,256,32.5,256,32.5z"/>
		<path fill="currentColor" d="M256,480.7L184.8,428l-87.7-13.1L84,327.2L31.3,256L84,184.8l13.1-87.7L184.8,84L256,31.3L327.2,84l87.7,13.1l13.1,87.7
			l52.7,71.2L428,327.2l-13.1,87.7L327.2,428L256,480.7z M98.9,413.2l86.7,12.9l70.5,52.2l70.5-52.2l0.2,0l86.4-12.9l12.9-86.7
			l0.1-0.2l52-70.3l-52.2-70.5l0-0.2l-12.9-86.4l-86.7-12.9l-0.2-0.1l-70.3-52l-70.5,52.2l-0.2,0L98.9,98.9l-12.9,86.7L33.8,256
			l52.2,70.5l0,0.2L98.9,413.2z M256,475.8l-69.7-51.6l-0.7-0.1l-85-12.7l-12.8-85.7l-0.4-0.6L36.2,256l51.6-69.7l0.1-0.7l12.7-85
			l85.7-12.8l0.6-0.4L256,36.2l69.7,51.6l0.7,0.1l85,12.7l12.8,85.7l0.4,0.6l51.1,69.1l-51.6,69.7l-0.1,0.7l-12.7,85l-85.7,12.8
			l-0.6,0.4L256,475.8z M102.4,409.6l84.8,12.7l1,0.7l67.9,50.2l68.9-51l1.2-0.2l83.5-12.5l12.7-84.8l51-68.9l-51-68.9l-0.2-1.2
			l-12.5-83.5l-84.8-12.7l-1-0.7L256,38.7l-68.9,51l-1.2,0.2l-83.5,12.5l-12.7,84.8l-0.7,1L38.7,256l51,68.9l0.2,1.2L102.4,409.6z"
			/>
	</g>
</g>
</svg>
