<?xml version="1.0" encoding="utf-8"?>
<!-- Generator: Adobe Illustrator 27.3.1, SVG Export Plug-In . SVG Version: 6.00 Build 0)  -->
<svg version="1.1" id="Layer_2"
	 xmlns="http://www.w3.org/2000/svg" xmlns:xlink="http://www.w3.org/1999/xlink" x="0px" y="0px" viewBox="0 0 1004.7 142"
	 style="enable-background:new 0 0 1004.7 142;" xml:space="preserve">
<g>
	<g>
		<path d="M837.4,20.3c2.8,2.7,7.3,1.1,7.8-2.8c0.7-5.5-5.6-7.8-9.9-5.9c-5,2.2-7.4,9-6.2,14.2c1.6,6.9,8.3,8.1,14.4,7.7
			c10.3-0.6,21.8-0.7,27.5,9.7c5,9.1,1.1,20.6-8.9,24.1c-10.5,3.7-22.6-6.3-19.5-17.5c1.6-5.8,7.2-10.5,13.4-9.4
			c2.9,0.5,5.7,2.3,7.3,4.8c1,1.5,1.4,3,1.5,4.8c0,5-1.6,5.1-4.9,0.5c1.4,0.8,2.7-1.4,1.3-2.2c-4.2-2.4-9.6,0.7-8.5,5.8
			c1.2,6,8.8,6.6,12.5,2.6c4.6-4.9,2.3-12.7-2.5-16.5c-5-3.9-11.9-4-17-0.2c-12.6,9.3-5.5,29.1,9.2,31c14.9,2,25.4-14,20.1-27.2
			c-3.2-7.9-10.3-12.4-18.7-13.5c-5.4-0.7-10.5,0.5-15.8,0.3c-4.9-0.2-9.1-2.8-8.8-8.3c0.1-1.6,0.7-3.5,1.4-4.9c0.5-0.7,1-1.3,1.5-2
			c4.8-3.6,5.9-2.2,3.4,4.1C837.6,19.2,837,19.9,837.4,20.3L837.4,20.3L837.4,20.3z"/>
		<path d="M866.4,28.4c-6.5,3.5-8.8,2.7-6.8-2.2c-0.5-2.3,0.2-3.8,2.2-4.5c1.9-1.5,4.6-1.8,6.9-1c4.2,1.3,5.8,5.5,8.1,8.8
			c2.3,3.4,5.3,6.4,9.2,7.9c7.4,2.7,16.3-2,15.4-10.6c-0.7-6.9-8.9-11.3-14.9-7.6c-5.4,3.3-4.2,12.6,3,11.2c1.4-0.3,1-2.3-0.3-2.4
			c0.2-2.4,0.4-4.7,0.6-7.1c1.2,0,2.4,0.1,3.5,0.1c2.2,0.6,4.4,2.6,5.1,4.7c1.6,4.8-2.5,9.4-7.2,9.7c-7.1,0.5-11.1-5.9-14.5-10.9
			c-3.5-5.2-9.3-8.7-15.5-5.4c-4.4,2.4-7.1,9-2.8,12.8c3.5,3.1,8.4,1,8.8-3.5C867.3,28.1,866.5,28,866.4,28.4L866.4,28.4L866.4,28.4
			z"/>
		<path d="M875.8,46.9c2.6-4.5,7.6-7.8,13-6.6c5.3,1.2,9.3,6.2,9.4,11.5c0.2,6.3-5.8,12.7-12.4,9.9c-3.1-1.3-5-4.6-4.1-7.9
			c0.5-1.8,1.6-3.3,3.4-4c0.9-0.6,1.8-0.6,2.8-0.2c3.6-0.1,3.7,2.1,0.6,6.7c-0.8,0.1-1.2,1.4-0.2,1.5c3.6,0.5,6.4-2.5,5.8-6.1
			c-0.9-4.5-6-6.2-9.9-4.7c-9.6,3.8-5.6,17.4,3.7,18.2c11.9,1,16.5-13.8,10.1-22.1c-6.3-8.1-19.9-7-23.2,3.3
			C874.5,47.1,875.5,47.5,875.8,46.9L875.8,46.9L875.8,46.9z"/>
		<path d="M898.3,59.1c3-5.2,7.4-10.6,13.9-10.9c5.8-0.2,9.5,4.3,13.1,8.1c5.1,5.4,11.4,10.1,19.2,9.7c14.4-0.8,18.2-19.2,4.1-24.3
			c-5.4-1.9-12.9-1.7-16.6,3.3c-3.4,4.6-2.2,11.4,2.8,14.3c4,2.4,11.9,1.7,12.5-4.2c0.4-3.9-3.8-6.7-6.9-4.2c-0.9,0.8,0.1,1.9,1,1.8
			c0.1,5-1.7,6.3-5.2,4c-2.1-1.3-3.2-3.2-3.3-5.8c0-4,3.1-6.5,6.7-7.3c6-1.2,15.1,2,15.3,9.2c0.2,6.6-6.3,10.4-12.2,10.2
			c-5.8-0.2-10.7-3.7-14.6-7.6c-4.6-4.5-9-9.9-16-9.5c-7.2,0.5-12.1,6.3-15,12.4C896.9,59.2,897.9,59.8,898.3,59.1L898.3,59.1
			L898.3,59.1z"/>
		<path d="M914.3,46.3c-3.9-4.3-7.5-9.4-3.2-15.1c1.9-2.6,5.2-4.5,8.5-3.1c1.6,0.6,3.2,2.3,3.3,4.2c0.2,3.8-6.3,5.8-6.9,0.6
			c-0.1-1-1.7-1.4-1.9-0.2c-0.7,4.8,4.7,8.2,8.7,5.1c4.5-3.4,2.7-10-2.1-12c-12.9-5.5-19.9,18.6-6.8,21.1
			C914.3,46.9,914.5,46.5,914.3,46.3L914.3,46.3L914.3,46.3z"/>
		<path d="M933.4,36.4c-0.5,2,0.8,4.2,3,4.2c2,0,3.9-1.9,3.1-4c-0.8-2-3.8-2.9-5.1-0.8c-1.1,1.8,0.1,4.3,2.2,4.4
			c0.5,0,1-0.3,1.2-0.7c0.8-1.4,0.5-3.1-1.2-3.6c-0.8-0.2-1.5,0.5-1.3,1.3c0.1,0.3,0.2,0.8,0.1,0.9c0.4-0.2,0.8-0.5,1.2-0.7
			c0.5,0-0.1,0.2,0.1-0.1c-0.1,0,0-0.2,0-0.2c-0.1,0.1,0.1,0.1,0.2,0.2c0.2,0.1,0.3,0.2,0.3,0.5c0,0.6-0.9,0.8-1.3,0.8
			c-0.9-0.2-1.3-1.3-1.4-2.1C934.5,36,933.6,35.7,933.4,36.4L933.4,36.4L933.4,36.4z"/>
		<path d="M858.6,71c24.5,2,49.5,0.9,74,0.9c12,0,23.9,0,35.9,0c11.8,0,24.5,1.3,36.2-0.3c1.1-0.2,1.1-2.1,0-2.2
			c-11.4-1.5-23.7-0.3-35.1-0.3c-12.3,0-24.7,0-37,0c-24.5,0.1-49.5-1.1-74,0.9C858,70.2,858,70.9,858.6,71L858.6,71L858.6,71z"/>
		<path d="M957.4,65.1c2.6-0.3,2.9-3.1,0.8-4.5c-3.1-2-7.1,1.2-7.2,4.3c-0.3,4.3,4.6,6.4,8.3,5.9c2.2-0.3,4.1-1.6,5.9-3
			c1.6-1.3,3-2.9,4.6-4.3c1.9-2,4.3-3.2,7.1-3.6c6.7,5.9,7.1,7.8,1.1,5.6c0.9,0.2,1.5-0.9,0.9-1.5c-2.9-3.1-7.5,0.2-6.8,4.1
			c1.1,5.7,8.4,5.1,11.2,1.2c3.1-4.4,0.7-10.6-4.6-11.8c-3.4-0.7-6.6,1-9.2,3c-1.9,1.5-3.4,3.5-5.2,5.1c-1.4,1.2-2.6,2.2-4.4,2.7
			c-0.9,0.5-1.8,0.6-2.7,0.3c-2.3,0.1-2.2-1.4,0.4-4.2C957,64.7,957.1,65.2,957.4,65.1L957.4,65.1z"/>
		<path d="M905.4,55.6c3.9-7,7.4,1.8,8.5,4.2c0.8,1.7,1.9,3.4,3.5,4.7c2.6,2.1,6.6,2.8,8.5-0.4c0.6-0.9-0.1-2.3-1.3-2.2
			c-1.5,0.1-3,0.3-4.3-0.5c-1.5-0.9-2.3-3-3.2-4.4c-1.3-2-3.2-4.3-5.5-5.2c-2.7-1.1-7.3,0.2-6.6,3.8C905,55.7,905.3,55.7,905.4,55.6
			L905.4,55.6L905.4,55.6z"/>
		<path d="M902.4,58.8c2.5-1.9,2.7,2.9,2.7,4.2c0,1.4,0.2,3.1,1.3,4c2.4,2.1,6.5-0.2,5-3.3c-0.5-1.1-2-0.9-2.6,0
			c0,0-0.5,0.2-0.7,0.2c-0.6-0.1-0.9-0.9-1-1.4c-0.4-1.4-0.2-2.9-1.2-4.1c-1-1.3-3.2-1.8-4.1-0.2C901.6,58.6,902.1,59.1,902.4,58.8
			L902.4,58.8L902.4,58.8z"/>
	</g>
	<g>
		<path d="M838.1,121.6c0.2,2,0.5,4,0.7,6c-1.4-0.6-2.8-1.3-4.1-1.9c-1.1-0.9-2-2.9-2.4-4.3c-1.2-4.1,0-8.8,4.3-10.3
			c4.7-1.7,10.5,0.1,15.4,0c7.8-0.1,15.6-2.5,20.4-9c8.8-11.9,2.7-29.8-12.6-32c-14.7-2.1-26.5,15.3-17.3,27.6
			c3.8,5.1,10.4,7.6,16.5,5.3c5.8-2.2,10.1-8.2,8.4-14.6c-1.6-5.9-9.9-9.7-13.7-3.5c-3.3,5.3,2.4,10.9,7.6,7.9
			c1.4-0.8,0.2-3-1.3-2.2c3.2-4.6,4.9-4.4,4.9,0.6c0,1.8-0.5,3.3-1.5,4.8c-1.6,2.5-4.4,4.3-7.3,4.8c-6.2,1.2-11.8-3.6-13.4-9.4
			c-3.1-11.2,9.1-21.2,19.5-17.5c10.1,3.5,13.9,15,8.9,24.1c-5.7,10.4-17.2,10.2-27.5,9.7c-6.1-0.3-12.8,0.8-14.4,7.7
			c-1.2,5.1,1.1,11.9,6.2,14.1c4.3,1.9,10.6-0.4,9.9-5.9c-0.5-3.9-5-5.5-7.8-2.8C836.9,121.2,837.5,121.9,838.1,121.6L838.1,121.6
			L838.1,121.6z"/>
		<path d="M867.2,112.6c-0.3-4.4-5.2-6.5-8.7-3.5c-4.4,3.8-1.8,10.5,2.7,12.9c5.8,3.1,11.6,0.2,15-4.7c3.5-4.9,6.7-11.1,13.5-11.5
			c4.8-0.3,9.5,3.2,8.8,8.4c-0.3,2.3-1.7,4-3.7,5.1c-1,0.8-2.1,1.1-3.3,0.9c-3.5,0.7-4.3-1.7-2.4-7c1.3,0,1.7-2.1,0.3-2.4
			c-6.7-1.4-8.6,7.1-3.7,10.8c6,4.4,14.8,0,15.6-7.2c0.9-8.2-7.4-13-14.6-10.8c-4,1.2-7.2,4.1-9.5,7.5c-2.2,3-3.5,6.5-6.9,8.4
			c-2.2,1.2-4.5,1.8-7,1c-1.1-0.7-2.2-1.3-3.3-2c-3.5-7.5-1.4-9.4,6.2-5.7C866.5,113.2,867.3,113.1,867.2,112.6L867.2,112.6
			L867.2,112.6z"/>
		<path d="M874.7,94.6c3.3,10.3,16.9,11.3,23.2,3.3c6.5-8.3,1.8-23.1-10.1-22.1c-9.3,0.8-13.3,14.3-3.7,18.2c3.7,1.4,8.5,0,9.8-4.1
			c1.1-3.8-1.8-7.3-5.6-6.7c-0.9,0.2-0.6,1.4,0.2,1.5c0.4,2.2,0.9,4.3,1.3,6.5c-1.2,0.2-2.5,0.3-3.7,0.5c-1.5-0.3-3.3-1.8-4-3.1
			c-1.7-3.1-0.1-7.1,2.7-8.9c6.6-4.1,13.6,2.9,13.4,9.5c-0.1,5.1-3.8,10-8.8,11.4c-5.6,1.6-10.9-1.7-13.6-6.4
			C875.5,93.6,874.5,94,874.7,94.6L874.7,94.6L874.7,94.6z"/>
		<path d="M897.3,82.6c2.9,6.1,7.8,11.9,15,12.4c7.1,0.4,11.5-5,16-9.5c3.9-3.9,8.9-7.5,14.6-7.6c5.9-0.2,12.4,3.6,12.2,10.2
			c-0.2,7.2-9.3,10.5-15.3,9.2c-3.6-0.7-6.8-3.2-6.7-7.3c0.1-2.5,1.2-4.4,3.3-5.8c3.5-2.3,5.2-0.9,5.2,4c-0.9-0.2-1.9,1-1,1.8
			c3.1,2.5,7.3-0.3,6.9-4.2c-0.6-5.8-8.5-6.6-12.5-4.2c-4.9,2.9-6.2,9.7-2.8,14.3c3.7,5,11.2,5.2,16.6,3.3
			c14.2-5,10.3-23.4-4.1-24.3c-7.8-0.4-14.1,4.3-19.2,9.7c-3.6,3.8-7.3,8.3-13.1,8.1c-6.6-0.3-11-5.7-13.9-10.9
			C897.9,81.3,896.9,82,897.3,82.6L897.3,82.6L897.3,82.6z"/>
		<path d="M914,94.3c-6,1.2-8.2,8.8-6.5,13.9c1.7,5.4,7.7,9.6,13.3,7.2c4.7-2,6.5-8.4,2.2-11.9c-4-3.2-9.5,0.1-8.9,5
			c0.2,1.2,1.8,0.7,1.9-0.2c0.6-4.9,7-2.9,6.9,0.6c-0.1,1.4-1.3,3.1-2.5,3.8c-3.3,1.9-7.3,0-9.3-2.8c-4.1-5.8-0.7-10.7,3.2-15.1
			C914.5,94.6,914.3,94.2,914,94.3L914,94.3L914,94.3z"/>
		<path d="M934.5,104.5c0.1-0.8,0.6-1.9,1.4-2.1c0.4-0.1,1.3,0.2,1.3,0.8c0,0.3-0.6,0.6-0.5,0.7c-0.2-0.3,0.3-0.3-0.1-0.2
			c-0.4-0.2-0.8-0.4-1.2-0.7c0.1,0.1,0,0.7-0.1,0.9c-0.2,0.8,0.5,1.5,1.3,1.3c1.7-0.4,1.9-2.2,1.2-3.6c-0.2-0.4-0.7-0.7-1.2-0.7
			c-2.1,0.1-3.3,2.6-2.2,4.4c1.3,2.1,4.3,1.2,5.1-0.8c0.7-2-1.1-4-3.1-4c-2.1,0-3.5,2.3-3,4.2C933.6,105.4,934.5,105.2,934.5,104.5
			L934.5,104.5L934.5,104.5z"/>
		<path d="M858.6,71c24.5,2,49.5,0.9,74,0.9c12,0,23.9,0,35.9,0c11.8,0,24.5,1.3,36.2-0.3c1.1-0.2,1.1-2.1,0-2.2
			c-11.4-1.5-23.7-0.3-35.1-0.3c-12.3,0-24.7,0-37,0c-24.5,0.1-49.5-1.1-74,0.9C858,70.2,858,70.9,858.6,71L858.6,71L858.6,71z"/>
		<path d="M957.3,76.5c-0.5-1.4-1-2.7-1.5-4.1c0.7-0.1,1.4-0.2,2.2-0.3c2,0.1,4,1.4,5.5,2.6c1.8,1.6,3.3,3.5,5.1,5
			c2.5,2.2,5.6,4.1,9,3.7c5.7-0.6,8.8-7.1,5.4-11.8c-2.6-3.6-9.3-4.6-11,0.5c-1.3,4.1,3.5,8.1,6.7,4.8c0.6-0.7,0-1.8-0.9-1.5
			c6-2.2,5.7-0.3-1.1,5.6c-2.8-0.4-5.1-1.6-7.1-3.6c-1.6-1.4-2.9-3-4.6-4.3c-1.7-1.4-3.6-2.6-5.9-3c-3.7-0.5-8.6,1.5-8.3,5.9
			c0.2,3.2,4.2,6.4,7.2,4.3c2.1-1.4,1.8-4.2-0.8-4.5C957.1,75.9,957,76.4,957.3,76.5L957.3,76.5L957.3,76.5z"/>
		<path d="M904.9,85.6c-0.7,3.6,3.9,4.9,6.6,3.8c2.2-0.9,3.9-2.9,5.2-4.8c1-1.4,1.6-2.9,2.8-4.1c1.5-1.5,3-1.4,5-1.2
			c1.2,0.1,1.8-1.3,1.3-2.2c-1.9-3.2-5.9-2.4-8.5-0.4c-1.4,1.2-2.5,2.8-3.3,4.4c-1.2,2.5-4.8,11.5-8.6,4.4
			C905.3,85.4,905,85.4,904.9,85.6L904.9,85.6L904.9,85.6z"/>
		<path d="M901.8,82.9c1,1.5,3.1,1.1,4.1-0.2c0.8-1.1,0.8-2.4,1.1-3.7c0.1-0.5,0.3-1.7,1-1.8c0.2-0.1,0.8,0.2,0.8,0.2
			c0.6,0.9,2.1,1.1,2.6,0c1.4-3.1-2.6-5.3-5-3.3c-1.1,0.9-1.3,2.5-1.3,3.8c0,1.3-0.1,6.4-2.7,4.5C902.1,82,901.6,82.5,901.8,82.9
			L901.8,82.9L901.8,82.9z"/>
	</g>
</g>
<g>
	<g>
		<path d="M169.3,21.2c-2.8,2.7-7.3,1.1-7.8-2.8c-0.7-5.5,5.6-7.8,9.9-5.9c5,2.2,7.4,9,6.2,14.2c-1.6,6.9-8.3,8.1-14.4,7.7
			c-10.3-0.6-21.8-0.7-27.5,9.7c-5,9.1-1.1,20.6,8.9,24.1c10.5,3.7,22.6-6.3,19.5-17.5c-1.6-5.8-7.2-10.5-13.4-9.4
			c-2.9,0.5-5.7,2.3-7.3,4.8c-1,1.5-1.4,3-1.5,4.8c0,5,1.6,5.1,4.9,0.5c-1.4,0.8-2.7-1.4-1.3-2.2c4.2-2.4,9.6,0.7,8.5,5.8
			c-1.2,6-8.8,6.6-12.5,2.6c-4.6-4.9-2.3-12.7,2.5-16.5c5-3.9,11.9-4,17-0.2c12.6,9.3,5.5,29.1-9.2,31c-14.9,2-25.4-14-20.1-27.2
			c3.2-7.9,10.4-12.4,18.6-13.5c5.4-0.7,10.5,0.5,15.9,0.3c4.9-0.2,9.1-2.8,8.8-8.3c-0.1-1.6-0.6-3.5-1.4-4.9c-0.5-0.7-1-1.3-1.5-2
			c-4.8-3.6-5.9-2.3-3.4,4.1C169.2,20.1,169.7,20.8,169.3,21.2L169.3,21.2L169.3,21.2z"/>
		<path d="M140.3,29.3c6.5,3.5,8.8,2.7,6.8-2.2c0.5-2.3-0.2-3.8-2.2-4.5c-1.9-1.5-4.6-1.8-6.9-1c-4.2,1.3-5.8,5.5-8.1,8.8
			c-2.3,3.4-5.3,6.4-9.2,7.9c-7.4,2.7-16.3-2-15.4-10.6c0.7-6.9,8.9-11.3,14.9-7.6c5.4,3.3,4.2,12.6-3,11.2c-1.4-0.3-1-2.3,0.3-2.4
			c-0.2-2.4-0.4-4.7-0.6-7.1c-1.2,0-2.4,0.1-3.5,0.1c-2.2,0.6-4.4,2.6-5.1,4.7c-1.6,4.8,2.5,9.4,7.2,9.7c7.1,0.5,11.1-5.9,14.5-10.9
			c3.5-5.2,9.4-8.7,15.5-5.4c4.4,2.4,7.1,9,2.8,12.8c-3.5,3.1-8.4,1-8.8-3.5C139.5,29,140.2,28.9,140.3,29.3L140.3,29.3L140.3,29.3z
			"/>
		<path d="M130.9,47.8c-2.6-4.5-7.6-7.8-13-6.6c-5.3,1.2-9.3,6.2-9.4,11.5c-0.2,6.3,5.8,12.7,12.4,9.9c3.1-1.3,5-4.6,4.1-7.9
			c-0.5-1.8-1.6-3.3-3.4-4c-0.9-0.6-1.8-0.6-2.8-0.2c-3.6-0.1-3.7,2.1-0.6,6.7c0.8,0.1,1.2,1.4,0.2,1.5c-3.6,0.5-6.4-2.5-5.8-6.1
			c0.9-4.5,6-6.2,9.9-4.7c9.6,3.8,5.6,17.4-3.7,18.2c-11.9,1-16.5-13.8-10.1-22.1c6.3-8.1,19.9-7,23.2,3.3
			C132.2,48,131.3,48.4,130.9,47.8L130.9,47.8L130.9,47.8z"/>
		<path d="M108.4,60c-3-5.2-7.4-10.6-13.9-10.9c-5.8-0.2-9.5,4.3-13.1,8.1c-5.1,5.4-11.4,10.1-19.2,9.7C47.8,66,43.9,47.6,58.1,42.6
			c5.4-1.9,12.9-1.7,16.6,3.3c3.4,4.6,2.2,11.4-2.8,14.3c-4,2.4-11.9,1.7-12.5-4.2c-0.4-3.9,3.8-6.7,6.9-4.2c0.9,0.8-0.1,1.9-1,1.8
			c-0.1,5,1.7,6.3,5.2,4c2.1-1.3,3.2-3.2,3.3-5.8c0-4-3.1-6.5-6.7-7.3c-6-1.2-15.1,2-15.3,9.2c-0.2,6.6,6.3,10.4,12.2,10.2
			c5.8-0.2,10.7-3.7,14.6-7.6c4.6-4.5,9-9.9,16-9.5c7.2,0.5,12.1,6.3,15,12.4C109.8,60.1,108.8,60.7,108.4,60L108.4,60L108.4,60z"/>
		<path d="M92.5,47.2c3.9-4.3,7.5-9.4,3.2-15.1c-1.9-2.6-5.2-4.5-8.5-3.1c-1.6,0.6-3.2,2.3-3.3,4.2c-0.2,3.8,6.3,5.8,6.9,0.6
			c0.1-1,1.7-1.4,1.9-0.2c0.7,4.8-4.7,8.2-8.7,5.1c-4.5-3.4-2.7-10,2.1-12c12.9-5.5,19.9,18.6,6.8,21.1
			C92.4,47.8,92.2,47.4,92.5,47.2L92.5,47.2L92.5,47.2z"/>
		<path d="M73.3,37.3c0.5,2-0.8,4.2-3,4.2c-2,0-3.9-1.9-3.1-4c0.8-2,3.8-2.9,5.1-0.8c1.1,1.8-0.1,4.3-2.2,4.4c-0.5,0-1-0.3-1.2-0.7
			c-0.8-1.4-0.5-3.1,1.2-3.6c0.8-0.2,1.5,0.5,1.3,1.3c-0.1,0.3-0.2,0.8-0.1,0.9c-0.4-0.2-0.8-0.5-1.2-0.7c-0.5,0,0.1,0.2-0.1-0.1
			c0.1,0,0-0.2,0-0.2c0.1,0.1-0.1,0.1-0.2,0.2c-0.2,0.1-0.3,0.2-0.3,0.5c0,0.6,0.9,0.8,1.3,0.8c0.9-0.2,1.3-1.3,1.4-2.1
			C72.2,36.9,73.2,36.6,73.3,37.3L73.3,37.3L73.3,37.3z"/>
		<path d="M148.2,71.9c-24.5,2-49.5,0.9-74,0.9c-12,0-23.9,0-35.9,0c-11.8,0-24.5,1.3-36.2-0.3C1,72.4,1,70.5,2,70.3
			C13.4,68.8,25.7,70,37.2,70c12.3,0,24.7,0,37,0c24.5,0.1,49.5-1.1,74,0.9C148.7,71.1,148.7,71.8,148.2,71.9L148.2,71.9L148.2,71.9
			z"/>
		<path d="M49.3,66c-2.6-0.3-2.9-3.1-0.8-4.5c3.1-2,7,1.2,7.2,4.3c0.3,4.3-4.6,6.4-8.3,5.9c-2.2-0.3-4.1-1.6-5.9-3
			c-1.6-1.3-3-2.9-4.6-4.3c-1.9-2-4.3-3.2-7-3.6c-6.7,5.9-7.1,7.8-1.1,5.6c-0.9,0.2-1.5-0.9-0.9-1.5c2.9-3.1,7.5,0.2,6.8,4.1
			c-1.1,5.7-8.4,5.1-11.1,1.2c-3.1-4.4-0.7-10.6,4.6-11.8c3.4-0.7,6.6,1,9.2,3c1.9,1.5,3.4,3.5,5.2,5.1c1.4,1.2,2.6,2.2,4.5,2.7
			c0.9,0.5,1.8,0.6,2.7,0.3c2.3,0.1,2.2-1.4-0.5-4.2C49.7,65.6,49.7,66.1,49.3,66C49.3,66,49.3,66,49.3,66z"/>
		<path d="M101.4,56.5c-3.9-7-7.4,1.8-8.5,4.2c-0.8,1.7-1.9,3.4-3.5,4.7c-2.6,2.1-6.6,2.8-8.5-0.4c-0.6-0.9,0.1-2.3,1.3-2.2
			c1.5,0.1,3,0.3,4.3-0.5c1.5-0.9,2.3-3,3.2-4.4c1.3-2,3.2-4.3,5.5-5.2c2.7-1.1,7.3,0.2,6.6,3.8C101.8,56.6,101.5,56.6,101.4,56.5
			L101.4,56.5L101.4,56.5z"/>
		<path d="M104.3,59.7c-2.5-1.9-2.7,2.9-2.7,4.2c0,1.4-0.2,3.1-1.3,4c-2.4,2.1-6.5-0.2-5-3.3c0.5-1.1,2-0.9,2.6,0
			c0,0,0.5,0.2,0.7,0.2c0.6-0.1,0.9-0.9,1-1.4c0.4-1.4,0.2-2.9,1.2-4.1c1-1.3,3.2-1.8,4.1-0.2C105.2,59.5,104.7,60,104.3,59.7
			L104.3,59.7z"/>
	</g>
	<g>
		<path d="M168.7,122.5c-0.2,2-0.5,4-0.7,6c1.4-0.6,2.8-1.3,4.1-1.9c1.1-0.9,2-2.9,2.4-4.3c1.2-4.1,0-8.8-4.3-10.3
			c-4.7-1.7-10.5,0.1-15.4,0c-7.8-0.1-15.6-2.5-20.4-9c-8.8-11.9-2.7-29.8,12.6-32c14.6-2.1,26.5,15.3,17.3,27.6
			c-3.8,5.1-10.4,7.6-16.5,5.3c-5.8-2.2-10.1-8.2-8.4-14.6c1.6-5.9,9.9-9.7,13.7-3.5c3.3,5.3-2.4,10.9-7.6,7.9
			c-1.4-0.8-0.2-3,1.3-2.2c-3.2-4.6-4.9-4.4-4.9,0.6c0,1.8,0.5,3.3,1.5,4.8c1.6,2.5,4.4,4.3,7.3,4.8c6.2,1.2,11.8-3.6,13.4-9.4
			c3.1-11.2-9.1-21.2-19.5-17.5c-10.1,3.5-13.9,15-8.9,24.1c5.7,10.4,17.2,10.2,27.5,9.7c6.1-0.3,12.8,0.8,14.4,7.7
			c1.2,5.1-1.1,11.9-6.2,14.1c-4.3,1.9-10.6-0.4-9.9-5.9c0.5-3.9,5-5.5,7.8-2.8C169.8,122.1,169.2,122.8,168.7,122.5L168.7,122.5
			L168.7,122.5z"/>
		<path d="M139.5,113.5c0.3-4.4,5.2-6.5,8.7-3.5c4.4,3.8,1.8,10.5-2.7,12.9c-5.8,3.1-11.6,0.2-15-4.7c-3.5-4.9-6.7-11.1-13.5-11.5
			c-4.8-0.3-9.5,3.2-8.8,8.4c0.3,2.3,1.7,4,3.7,5.1c1,0.8,2.1,1.1,3.3,0.9c3.5,0.7,4.3-1.7,2.4-7c-1.3,0-1.7-2.1-0.3-2.4
			c6.7-1.4,8.6,7.1,3.7,10.8c-6,4.4-14.8,0-15.6-7.2c-0.9-8.2,7.4-13,14.6-10.8c4,1.2,7.2,4.1,9.5,7.5c2.2,3,3.5,6.5,6.9,8.4
			c2.2,1.2,4.5,1.8,7,1c1.1-0.7,2.2-1.3,3.3-2c3.5-7.5,1.4-9.4-6.2-5.7C140.2,114.1,139.5,114,139.5,113.5L139.5,113.5L139.5,113.5z
			"/>
		<path d="M132,95.5c-3.3,10.3-16.9,11.3-23.2,3.3c-6.5-8.3-1.8-23.1,10.1-22.1c9.3,0.8,13.3,14.3,3.7,18.2c-3.7,1.4-8.5,0-9.8-4.1
			c-1.1-3.8,1.8-7.3,5.6-6.7c0.9,0.2,0.6,1.4-0.2,1.5c-0.4,2.2-0.9,4.3-1.3,6.5c1.2,0.2,2.5,0.3,3.7,0.5c1.5-0.3,3.3-1.8,4-3.1
			c1.7-3.1,0.1-7.1-2.7-8.9c-6.6-4.1-13.6,2.9-13.4,9.5c0.1,5.1,3.8,10,8.8,11.4c5.6,1.6,10.9-1.7,13.6-6.4
			C131.3,94.5,132.2,94.9,132,95.5L132,95.5L132,95.5z"/>
		<path d="M109.5,83.5c-2.9,6.1-7.8,11.9-15,12.4c-7.1,0.4-11.5-5-16-9.5c-3.9-3.9-8.9-7.5-14.6-7.6c-5.9-0.2-12.4,3.6-12.2,10.2
			c0.2,7.2,9.3,10.5,15.3,9.2c3.6-0.7,6.8-3.2,6.7-7.3c-0.1-2.5-1.2-4.4-3.3-5.8c-3.5-2.3-5.2-0.9-5.2,4c0.9-0.2,1.9,1,1,1.8
			c-3,2.5-7.3-0.3-6.9-4.2c0.6-5.8,8.5-6.6,12.5-4.2c4.9,2.9,6.2,9.7,2.8,14.3c-3.7,5-11.2,5.2-16.6,3.3c-14.2-5-10.3-23.4,4.1-24.3
			c7.8-0.4,14.1,4.3,19.2,9.7c3.6,3.8,7.3,8.3,13.1,8.1c6.6-0.3,11-5.7,13.9-10.9C108.8,82.2,109.8,82.9,109.5,83.5L109.5,83.5
			L109.5,83.5z"/>
		<path d="M92.8,95.2c6,1.2,8.2,8.8,6.5,13.9c-1.7,5.4-7.7,9.6-13.3,7.2c-4.7-2-6.5-8.4-2.2-11.9c4-3.2,9.5,0.1,8.9,5
			c-0.2,1.2-1.8,0.7-1.9-0.2c-0.6-4.9-7-2.9-6.9,0.6c0.1,1.4,1.3,3.1,2.5,3.8c3.3,1.9,7.3,0,9.3-2.8c4.1-5.8,0.7-10.7-3.2-15.1
			C92.2,95.5,92.5,95.1,92.8,95.2L92.8,95.2L92.8,95.2z"/>
		<path d="M72.2,105.4c-0.1-0.8-0.6-1.9-1.4-2.1c-0.4-0.1-1.3,0.2-1.3,0.8c0,0.3,0.6,0.6,0.5,0.7c0.2-0.3-0.3-0.3,0.1-0.2
			c0.4-0.2,0.8-0.4,1.2-0.7c-0.1,0.1,0,0.7,0.1,0.9c0.2,0.8-0.5,1.5-1.3,1.3c-1.7-0.4-1.9-2.2-1.2-3.6c0.2-0.4,0.7-0.7,1.2-0.7
			c2.1,0.1,3.3,2.6,2.2,4.4c-1.3,2.1-4.3,1.2-5.1-0.8c-0.7-2,1.1-4,3.1-4c2.1,0,3.5,2.3,3,4.2C73.2,106.3,72.3,106.1,72.2,105.4
			L72.2,105.4z"/>
		<path d="M148.2,71.9c-24.5,2-49.5,0.9-74,0.9c-12,0-23.9,0-35.9,0c-11.8,0-24.5,1.3-36.2-0.3C1,72.4,1,70.5,2,70.3
			C13.4,68.8,25.7,70,37.2,70c12.3,0,24.7,0,37,0c24.5,0.1,49.5-1.1,74,0.9C148.7,71.1,148.7,71.8,148.2,71.9L148.2,71.9L148.2,71.9
			z"/>
		<path d="M49.4,77.4c0.5-1.4,1-2.7,1.5-4.1c-0.7-0.1-1.5-0.2-2.2-0.3c-2,0.1-4,1.4-5.5,2.6c-1.8,1.6-3.3,3.5-5.1,5
			c-2.5,2.2-5.6,4.1-9,3.7c-5.7-0.6-8.8-7.1-5.5-11.8c2.6-3.6,9.3-4.6,11,0.5c1.3,4.1-3.5,8.1-6.7,4.8c-0.6-0.7,0-1.8,0.9-1.5
			c-6-2.2-5.7-0.3,1.1,5.6c2.8-0.4,5.1-1.6,7-3.6c1.6-1.4,2.9-3,4.6-4.3c1.7-1.4,3.6-2.6,5.9-3c3.7-0.5,8.5,1.5,8.3,5.9
			c-0.2,3.2-4.2,6.4-7.2,4.3c-2.1-1.4-1.8-4.2,0.8-4.5C49.7,76.8,49.7,77.3,49.4,77.4L49.4,77.4L49.4,77.4z"/>
		<path d="M101.8,86.5c0.7,3.6-3.9,4.9-6.6,3.8c-2.2-0.9-3.9-2.9-5.2-4.8c-1-1.4-1.6-2.9-2.8-4.1c-1.5-1.5-3-1.4-5-1.2
			c-1.2,0.1-1.8-1.3-1.3-2.2c1.9-3.2,5.9-2.4,8.5-0.4c1.4,1.2,2.5,2.8,3.3,4.4c1.2,2.5,4.8,11.5,8.6,4.4
			C101.5,86.2,101.8,86.3,101.8,86.5L101.8,86.5L101.8,86.5z"/>
		<path d="M104.9,83.8c-1,1.5-3.1,1.1-4.1-0.2c-0.8-1.1-0.8-2.4-1.1-3.7c-0.1-0.5-0.3-1.7-1-1.8c-0.2-0.1-0.8,0.2-0.8,0.2
			c-0.6,0.9-2.1,1.1-2.6,0c-1.4-3.1,2.6-5.3,5-3.3c1.1,0.9,1.3,2.5,1.3,3.8c0,1.3,0.1,6.4,2.7,4.5C104.7,82.9,105.1,83.4,104.9,83.8
			L104.9,83.8L104.9,83.8z"/>
	</g>
</g>
</svg>
